<svg width="318" height="317" viewBox="0 0 318 317" fill="none" xmlns="http://www.w3.org/2000/svg">
<g filter="url(#filter0_d)">
<path fill-rule="evenodd" clip-rule="evenodd" d="M84.6855 62.4095C98.5844 64.1986 113.375 59.5625 125.699 66.215C138.38 73.06 145.85 86.2098 152.456 98.9912C159.329 112.291 167.054 126.552 164.5 141.296C161.966 155.932 146.8 164.126 138.985 176.77C129.15 192.682 129.979 217.769 112.722 225.065C95.8691 232.19 77.4907 217.955 61.1852 209.661C47.312 202.604 33.4151 194.305 25.7158 180.806C18.6177 168.36 24.2771 152.912 20.8847 139C16.9674 122.935 1.40804 109.546 4.37317 93.2796C7.42327 76.5469 20.3371 60.8181 36.251 54.7012C51.8214 48.7163 68.1357 60.2792 84.6855 62.4095Z" fill="#F28705"/>
</g>
<g filter="url(#filter1_d)">
<path fill-rule="evenodd" clip-rule="evenodd" d="M198.146 1.97807C222.694 0.124253 253.461 -4.80315 269.161 14.0996C285.384 33.632 266.682 63.1493 269.852 88.3101C272.138 106.455 285.558 121.383 284.982 139.661C284.252 162.837 284.648 190.783 266.181 204.882C247.722 218.974 221.385 205.242 198.146 205.956C173.819 206.704 146.513 223.649 126.991 209.162C107.445 194.656 114.51 164.011 109.571 140.224C105.322 119.758 95.7287 100.222 100.129 79.7883C104.823 57.9845 117.04 38.158 134.54 24.2657C152.561 9.95971 175.174 3.7128 198.146 1.97807Z" fill="#400C07"/>
</g>
<g filter="url(#filter2_d)">
<path fill-rule="evenodd" clip-rule="evenodd" d="M89.214 140.03C102.165 140.105 115.639 141.217 126.064 148.899C136.451 156.554 139.919 169.662 145.322 181.378C151.588 194.966 164.601 208.359 160.056 222.614C155.513 236.867 138.225 242.561 124.177 247.711C112.957 251.825 101.145 249.275 89.214 248.589C78.1261 247.951 66.4741 249.737 57.0581 243.849C47.3072 237.751 40.3252 227.534 37.6585 216.35C35.1056 205.642 40.641 195.336 42.9245 184.567C45.5637 172.122 42.8838 157.293 52.053 148.471C61.435 139.444 76.1929 139.955 89.214 140.03Z" fill="#8C1A0F"/>
</g>
<g filter="url(#filter3_d)">
<path fill-rule="evenodd" clip-rule="evenodd" d="M185.323 86.7438C207.958 78.9952 238.019 79.7036 254.92 96.6777C272.275 114.108 259.522 144.513 266.392 168.164C271.88 187.057 289.961 200.867 290.894 220.524C291.91 241.893 285.614 264.157 271.724 280.391C257.808 296.655 236.725 305.657 215.557 308.576C195.957 311.279 178.08 300.335 158.781 295.966C137.846 291.226 112.096 297.395 97.2989 281.803C82.5201 266.23 86.7296 241.076 86.292 219.581C85.9017 200.407 84.4578 179.944 94.8982 163.879C104.885 148.51 126.833 147.641 140.765 135.756C157.904 121.136 164.03 94.0331 185.323 86.7438Z" fill="#F25C05"/>
</g>
<g filter="url(#filter4_d)">
<path fill-rule="evenodd" clip-rule="evenodd" d="M235.42 63.2095C249.827 67.5661 251.485 88.7883 264.31 96.6548C277.592 104.802 298.751 96.1286 308.664 108.136C318.233 119.726 312.461 137.401 310.21 152.25C307.973 167.003 307.251 184.173 295.701 193.647C284.239 203.047 267.33 199.091 252.503 199.58C241.167 199.954 230.601 197.532 219.342 196.166C205.468 194.483 188.021 200.961 178.639 190.621C169.305 180.335 180.149 163.442 177.319 149.855C174.199 134.871 158.336 122.775 161.388 107.777C164.455 92.6994 179.358 82.9035 192.558 74.9571C205.507 67.1618 220.947 58.8329 235.42 63.2095Z" fill="#F2D544"/>
</g>
<defs>
<filter id="filter0_d" x="0" y="53" width="169" height="182" filterUnits="userSpaceOnUse" color-interpolation-filters="sRGB">
<feFlood flood-opacity="0" result="BackgroundImageFix"/>
<feColorMatrix in="SourceAlpha" type="matrix" values="0 0 0 0 0 0 0 0 0 0 0 0 0 0 0 0 0 0 127 0"/>
<feOffset dy="4"/>
<feGaussianBlur stdDeviation="2"/>
<feColorMatrix type="matrix" values="0 0 0 0 0 0 0 0 0 0 0 0 0 0 0 0 0 0 0.25 0"/>
<feBlend mode="normal" in2="BackgroundImageFix" result="effect1_dropShadow"/>
<feBlend mode="normal" in="SourceGraphic" in2="effect1_dropShadow" result="shape"/>
</filter>
<filter id="filter1_d" x="95" y="0" width="194" height="223" filterUnits="userSpaceOnUse" color-interpolation-filters="sRGB">
<feFlood flood-opacity="0" result="BackgroundImageFix"/>
<feColorMatrix in="SourceAlpha" type="matrix" values="0 0 0 0 0 0 0 0 0 0 0 0 0 0 0 0 0 0 127 0"/>
<feOffset dy="4"/>
<feGaussianBlur stdDeviation="2"/>
<feColorMatrix type="matrix" values="0 0 0 0 0 0 0 0 0 0 0 0 0 0 0 0 0 0 0.25 0"/>
<feBlend mode="normal" in2="BackgroundImageFix" result="effect1_dropShadow"/>
<feBlend mode="normal" in="SourceGraphic" in2="effect1_dropShadow" result="shape"/>
</filter>
<filter id="filter2_d" x="33" y="140" width="132" height="118" filterUnits="userSpaceOnUse" color-interpolation-filters="sRGB">
<feFlood flood-opacity="0" result="BackgroundImageFix"/>
<feColorMatrix in="SourceAlpha" type="matrix" values="0 0 0 0 0 0 0 0 0 0 0 0 0 0 0 0 0 0 127 0"/>
<feOffset dy="4"/>
<feGaussianBlur stdDeviation="2"/>
<feColorMatrix type="matrix" values="0 0 0 0 0 0 0 0 0 0 0 0 0 0 0 0 0 0 0.25 0"/>
<feBlend mode="normal" in2="BackgroundImageFix" result="effect1_dropShadow"/>
<feBlend mode="normal" in="SourceGraphic" in2="effect1_dropShadow" result="shape"/>
</filter>
<filter id="filter3_d" x="82" y="82" width="213" height="235" filterUnits="userSpaceOnUse" color-interpolation-filters="sRGB">
<feFlood flood-opacity="0" result="BackgroundImageFix"/>
<feColorMatrix in="SourceAlpha" type="matrix" values="0 0 0 0 0 0 0 0 0 0 0 0 0 0 0 0 0 0 127 0"/>
<feOffset dy="4"/>
<feGaussianBlur stdDeviation="2"/>
<feColorMatrix type="matrix" values="0 0 0 0 0 0 0 0 0 0 0 0 0 0 0 0 0 0 0.25 0"/>
<feBlend mode="normal" in2="BackgroundImageFix" result="effect1_dropShadow"/>
<feBlend mode="normal" in="SourceGraphic" in2="effect1_dropShadow" result="shape"/>
</filter>
<filter id="filter4_d" x="157" y="62" width="161" height="146" filterUnits="userSpaceOnUse" color-interpolation-filters="sRGB">
<feFlood flood-opacity="0" result="BackgroundImageFix"/>
<feColorMatrix in="SourceAlpha" type="matrix" values="0 0 0 0 0 0 0 0 0 0 0 0 0 0 0 0 0 0 127 0"/>
<feOffset dy="4"/>
<feGaussianBlur stdDeviation="2"/>
<feColorMatrix type="matrix" values="0 0 0 0 0 0 0 0 0 0 0 0 0 0 0 0 0 0 0.25 0"/>
<feBlend mode="normal" in2="BackgroundImageFix" result="effect1_dropShadow"/>
<feBlend mode="normal" in="SourceGraphic" in2="effect1_dropShadow" result="shape"/>
</filter>
</defs>
</svg>
