<svg width="28" height="36" viewBox="0 0 28 36" fill="none" xmlns="http://www.w3.org/2000/svg">
<g filter="url(#filter0_d)">
<path d="M6.75 17.875C6.75 19.6984 7.47433 21.447 8.76364 22.7364C10.053 24.0257 11.8016 24.75 13.625 24.75C15.4484 24.75 17.197 24.0257 18.4864 22.7364C19.7757 21.447 20.5 19.6984 20.5 17.875C20.5 15.5017 18.2175 10.9574 13.625 4.60213C9.0325 10.9574 6.75 15.5017 6.75 17.875ZM13.625 0C20.0421 8.37375 23.25 14.3316 23.25 17.875C23.25 20.4277 22.2359 22.8759 20.4309 24.6809C18.6259 26.4859 16.1777 27.5 13.625 27.5C11.0723 27.5 8.62413 26.4859 6.8191 24.6809C5.01406 22.8759 4 20.4277 4 17.875C4 14.3316 7.20788 8.37375 13.625 0Z" fill="white"/>
</g>
<defs>
<filter id="filter0_d" x="0" y="0" width="27.25" height="35.5" filterUnits="userSpaceOnUse" color-interpolation-filters="sRGB">
<feFlood flood-opacity="0" result="BackgroundImageFix"/>
<feColorMatrix in="SourceAlpha" type="matrix" values="0 0 0 0 0 0 0 0 0 0 0 0 0 0 0 0 0 0 127 0"/>
<feOffset dy="4"/>
<feGaussianBlur stdDeviation="2"/>
<feColorMatrix type="matrix" values="0 0 0 0 0 0 0 0 0 0 0 0 0 0 0 0 0 0 0.25 0"/>
<feBlend mode="normal" in2="BackgroundImageFix" result="effect1_dropShadow"/>
<feBlend mode="normal" in="SourceGraphic" in2="effect1_dropShadow" result="shape"/>
</filter>
</defs>
</svg>
