<svg width="22" height="28" viewBox="0 0 22 28" fill="none" xmlns="http://www.w3.org/2000/svg">
<path d="M10.7246 0.450745C7.88029 0.450745 5.15243 1.34683 3.14117 2.94187C1.12991 4.53691 0 6.70025 0 8.95598C0 17.4612 10.7246 27.6675 10.7246 27.6675C10.7246 27.6675 21.4493 17.4612 21.4493 8.95598C21.4493 6.70025 20.3194 4.53691 18.3081 2.94187C16.2968 1.34683 13.569 0.450745 10.7246 0.450745ZM10.7246 14.0591C9.01803 14.0591 7.38132 13.5215 6.17456 12.5644C4.9678 11.6074 4.28986 10.3094 4.28986 8.95598C4.28986 7.60254 4.9678 6.30454 6.17456 5.34751C7.38132 4.39049 9.01803 3.85284 10.7246 3.85284C12.4313 3.85284 14.068 4.39049 15.2747 5.34751C16.4815 6.30454 17.1594 7.60254 17.1594 8.95598C17.1594 10.3094 16.4815 11.6074 15.2747 12.5644C14.068 13.5215 12.4313 14.0591 10.7246 14.0591Z" fill="#FFFFFF"/>
</svg>
