<svg width="178" height="178" viewBox="0 0 178 178" fill="none" xmlns="http://www.w3.org/2000/svg">
<g filter="url(#filter0_d)">
<path d="M89 0C118.926 0 135.904 20.9748 138.374 46.2996H139.129C158.387 46.2996 174 62.7894 174 83.1242C174 103.464 158.387 119.949 139.129 119.949L130.992 119.954L130.973 119.999H128.206L118.898 136.899C118.507 137.608 117.989 138.229 117.371 138.725C116.754 139.222 116.05 139.586 115.3 139.794C114.551 140.003 113.769 140.054 113.001 139.943C112.233 139.832 111.492 139.562 110.823 139.149C110.153 138.735 109.567 138.186 109.097 137.532C108.628 136.879 108.285 136.134 108.088 135.34C107.89 134.546 107.843 133.719 107.947 132.905C108.052 132.092 108.307 131.308 108.697 130.599L114.568 119.949L94.4545 119.954L94.4403 119.999H90.4262L81.1182 136.899C80.7275 137.608 80.2087 138.229 79.5914 138.725C78.9741 139.222 78.2704 139.586 77.5206 139.794C76.7707 140.003 75.9893 140.054 75.221 139.943C74.4527 139.832 73.7125 139.562 73.0427 139.149C72.3729 138.735 71.7867 138.186 71.3174 137.532C70.8481 136.879 70.505 136.134 70.3077 135.34C70.1104 134.546 70.0626 133.719 70.1673 132.905C70.2719 132.092 70.5269 131.308 70.9176 130.599L76.7877 119.949L57.9213 119.954L57.9072 119.999H52.651L43.3383 136.899C42.9476 137.608 42.4288 138.229 41.8115 138.725C41.1942 139.222 40.4906 139.586 39.7407 139.794C38.9908 140.003 38.2094 140.054 37.4411 139.943C36.6728 139.832 35.9326 139.562 35.2628 139.149C34.5931 138.735 34.0068 138.186 33.5375 137.532C33.0682 136.879 32.7251 136.134 32.5278 135.34C32.3305 134.546 32.2828 133.719 32.3874 132.905C32.4921 132.092 32.747 131.308 33.1377 130.599L39.0078 119.949H38.8708C19.6125 119.949 4 103.464 4 83.1242C4 62.7894 19.6125 46.2996 38.8708 46.2996H39.6264C42.1105 20.8048 59.0736 0 89.0047 0H89ZM89 12.4749C68.8775 12.4749 51.3382 29.7147 51.3382 53.5245C51.3382 57.2995 48.2402 60.2644 44.6889 60.2644H37.983C25.7329 60.2644 15.8015 70.8294 15.8015 83.8642C15.8015 96.9041 25.7329 107.474 37.983 107.474H140.017C152.267 107.474 162.199 96.9041 162.199 83.8692C162.199 70.8294 152.267 60.2594 140.017 60.2594H133.311C129.76 60.2594 126.662 57.2995 126.662 53.5295C126.662 29.4097 109.123 12.4799 89 12.4799V12.4749Z" fill="white"/>
<path d="M58.9224 143.349C59.5924 143.762 60.1788 144.311 60.6482 144.965C61.1176 145.618 61.4607 146.363 61.6581 147.157C61.8554 147.951 61.9031 148.779 61.7983 149.592C61.6936 150.406 61.4385 151.189 61.0476 151.899L52.7832 166.898C52.3925 167.608 51.8737 168.228 51.2564 168.725C50.6392 169.222 49.9355 169.585 49.1856 169.794C48.4357 170.003 47.6543 170.054 46.886 169.943C46.1177 169.832 45.3775 169.562 44.7078 169.148C44.038 168.735 43.4517 168.185 42.9824 167.532C42.5132 166.878 42.1701 166.133 41.9727 165.339C41.7754 164.546 41.7277 163.718 41.8323 162.905C41.937 162.091 42.1919 161.308 42.5827 160.598L50.847 145.599C51.2376 144.889 51.7563 144.268 52.3736 143.771C52.9908 143.275 53.6945 142.911 54.4444 142.702C55.1944 142.493 55.9758 142.443 56.7442 142.554C57.5125 142.665 58.2527 142.935 58.9224 143.349Z" fill="white"/>
<path d="M98.8275 151.899C99.2182 151.189 99.4731 150.406 99.5778 149.592C99.6824 148.779 99.6347 147.952 99.4374 147.158C99.2401 146.364 98.897 145.619 98.4277 144.965C97.9584 144.312 97.3721 143.762 96.7024 143.349C96.0326 142.935 95.2924 142.665 94.5241 142.554C93.7558 142.443 92.9744 142.494 92.2245 142.703C91.4746 142.912 90.771 143.275 90.1537 143.772C89.5364 144.269 89.0176 144.889 88.6269 145.599L80.3626 160.598C79.9719 161.308 79.7169 162.091 79.6123 162.905C79.5076 163.718 79.5553 164.545 79.7526 165.339C79.95 166.133 80.2931 166.878 80.7624 167.532C81.2316 168.185 81.8179 168.735 82.4877 169.148C83.1575 169.562 83.8976 169.832 84.6659 169.943C85.4342 170.054 86.2156 170.003 86.9655 169.794C87.7154 169.585 88.4191 169.222 89.0363 168.725C89.6536 168.228 90.1724 167.608 90.5631 166.898L98.8275 151.899Z" fill="white"/>
</g>
<defs>
<filter id="filter0_d" x="0" y="0" width="178" height="178" filterUnits="userSpaceOnUse" color-interpolation-filters="sRGB">
<feFlood flood-opacity="0" result="BackgroundImageFix"/>
<feColorMatrix in="SourceAlpha" type="matrix" values="0 0 0 0 0 0 0 0 0 0 0 0 0 0 0 0 0 0 127 0"/>
<feOffset dy="4"/>
<feGaussianBlur stdDeviation="2"/>
<feColorMatrix type="matrix" values="0 0 0 0 0 0 0 0 0 0 0 0 0 0 0 0 0 0 0.25 0"/>
<feBlend mode="normal" in2="BackgroundImageFix" result="effect1_dropShadow"/>
<feBlend mode="normal" in="SourceGraphic" in2="effect1_dropShadow" result="shape"/>
</filter>
</defs>
</svg>
