<svg width="178" height="179" viewBox="0 0 178 179" fill="none" xmlns="http://www.w3.org/2000/svg">
<g filter="url(#filter0_d)">
<path d="M88.9659 147.33C91.7174 147.33 93.9842 149.421 94.2563 152.099L94.2819 152.643V165.554C94.2764 166.912 93.7504 168.217 92.812 169.2C91.8735 170.183 90.594 170.769 89.2364 170.838C87.8787 170.907 86.5462 170.454 85.5127 169.571C84.4792 168.689 83.8232 167.444 83.6796 166.093L83.6499 165.554V152.643C83.6499 149.71 86.0314 147.33 88.9659 147.33ZM139.587 128.771L140.016 129.153L149.151 138.286C150.113 139.247 150.67 140.539 150.707 141.898C150.744 143.256 150.259 144.577 149.352 145.589C148.445 146.601 147.184 147.227 145.828 147.338C144.473 147.449 143.127 147.037 142.066 146.187L141.633 145.8L132.498 136.671C131.517 135.715 130.945 134.416 130.899 133.048C130.854 131.679 131.339 130.346 132.253 129.326C133.168 128.306 134.441 127.678 135.808 127.574C137.174 127.47 138.528 127.897 139.587 128.767V128.771ZM45.43 129.153C46.3569 130.079 46.9091 131.314 46.9805 132.622C47.0519 133.929 46.6376 135.217 45.817 136.238L45.43 136.671L36.295 145.8C35.335 146.769 34.0389 147.332 32.6751 147.373C31.3112 147.413 29.984 146.928 28.9681 146.018C27.9523 145.108 27.3256 143.842 27.2178 142.482C27.11 141.123 27.5293 139.775 28.389 138.716L28.776 138.286L37.911 129.158C38.4047 128.664 38.9908 128.273 39.6358 128.006C40.2809 127.739 40.9723 127.601 41.6705 127.601C42.3687 127.601 43.0601 127.739 43.7052 128.006C44.3502 128.273 44.9363 128.664 45.43 129.158V129.153ZM88.9999 39.4466C114.644 39.4466 135.44 60.2286 135.44 85.8555C135.44 111.482 114.644 132.264 88.9999 132.264C63.3555 132.264 42.5593 111.482 42.5593 85.8555C42.5593 60.2286 63.3555 39.4466 88.9999 39.4466ZM88.9999 50.0714C79.5029 50.0714 70.3948 53.8415 63.6794 60.5523C56.964 67.2631 53.1913 76.365 53.1913 85.8555C53.1913 95.346 56.964 104.448 63.6794 111.159C70.3948 117.87 79.5029 121.64 88.9999 121.64C98.4969 121.64 107.605 117.87 114.32 111.159C121.036 104.448 124.808 95.346 124.808 85.8555C124.808 76.365 121.036 67.2631 114.32 60.5523C107.605 53.8415 98.4969 50.0714 88.9999 50.0714V50.0714ZM168.655 80.7004C170.022 80.6929 171.34 81.2122 172.334 82.1504C173.328 83.0886 173.922 84.3736 173.993 85.7382C174.064 87.1029 173.605 88.4422 172.713 89.478C171.821 90.5137 170.564 91.1661 169.203 91.2996L168.659 91.3251H155.739C154.38 91.3197 153.074 90.794 152.091 89.8562C151.107 88.9184 150.52 87.6398 150.451 86.2831C150.382 84.9264 150.836 83.5947 151.719 82.5619C152.602 81.5291 153.847 80.8736 155.199 80.7301L155.739 80.7004H168.659H168.655ZM22.2607 80.4539C23.6201 80.4593 24.9257 80.985 25.9092 81.9228C26.8927 82.8605 27.4794 84.1392 27.5485 85.4959C27.6177 86.8526 27.1641 88.1843 26.2811 89.2171C25.398 90.2499 24.1526 90.9054 22.8008 91.0489L22.2607 91.0786H9.34071C7.97374 91.085 6.65685 90.5648 5.66359 89.6263C4.67034 88.6877 4.07706 87.4029 4.00699 86.0386C3.93693 84.6743 4.39546 83.3355 5.28734 82.3003C6.17923 81.265 7.43591 80.6129 8.79635 80.4794L9.34071 80.4539H22.2607V80.4539ZM35.8654 25.524L36.295 25.9107L45.43 35.0395C46.4012 35.9981 46.9662 37.2932 47.0079 38.6567C47.0497 40.0202 46.565 41.3474 45.6542 42.3635C44.7435 43.3796 43.4765 44.0067 42.1157 44.1148C40.755 44.2229 39.4048 43.8038 38.3448 42.9443L37.911 42.5533L28.776 33.4245C27.8064 32.4652 27.243 31.1701 27.2024 29.8071C27.1619 28.4442 27.6474 27.1179 28.5583 26.1027C29.4692 25.0876 30.7359 24.4613 32.0961 24.3536C33.4563 24.2458 34.8058 24.6649 35.8654 25.524V25.524ZM149.151 25.9107C150.078 26.8363 150.631 28.0714 150.702 29.379C150.773 30.6865 150.359 31.9744 149.538 32.9953L149.156 33.4245L140.016 42.5533C139.055 43.5143 137.762 44.0706 136.403 44.1079C135.043 44.1452 133.722 43.6606 132.709 42.7537C131.696 41.8468 131.07 40.5867 130.959 39.2325C130.847 37.8782 131.26 36.5328 132.111 35.473L132.498 35.0395L141.633 25.9107C142.126 25.4173 142.712 25.0258 143.357 24.7588C144.002 24.4917 144.694 24.3543 145.392 24.3543C146.09 24.3543 146.782 24.4917 147.427 24.7588C148.072 25.0258 148.658 25.4173 149.151 25.9107ZM88.9999 0.844849C91.7557 0.844849 94.0182 2.9358 94.2904 5.61748L94.3159 6.15722V19.0684C94.3115 20.4272 93.7862 21.7327 92.8481 22.7163C91.91 23.6999 90.6304 24.2869 89.2725 24.3566C87.9146 24.4263 86.5815 23.9733 85.5475 23.0909C84.5136 22.2084 83.8573 20.9636 83.7137 19.6124L83.6839 19.0684V6.15722C83.6839 3.22479 86.0654 0.844849 88.9999 0.844849Z" fill="white"/>
</g>
<defs>
<filter id="filter0_d" x="0" y="0.844849" width="178" height="178" filterUnits="userSpaceOnUse" color-interpolation-filters="sRGB">
<feFlood flood-opacity="0" result="BackgroundImageFix"/>
<feColorMatrix in="SourceAlpha" type="matrix" values="0 0 0 0 0 0 0 0 0 0 0 0 0 0 0 0 0 0 127 0"/>
<feOffset dy="4"/>
<feGaussianBlur stdDeviation="2"/>
<feColorMatrix type="matrix" values="0 0 0 0 0 0 0 0 0 0 0 0 0 0 0 0 0 0 0.25 0"/>
<feBlend mode="normal" in2="BackgroundImageFix" result="effect1_dropShadow"/>
<feBlend mode="normal" in="SourceGraphic" in2="effect1_dropShadow" result="shape"/>
</filter>
</defs>
</svg>
