<svg width="42" height="35" viewBox="0 0 42 35" fill="none" xmlns="http://www.w3.org/2000/svg">
<g filter="url(#filter0_d)">
<path d="M32.3644 9.74982C33.6576 9.7612 34.8961 10.2605 35.8199 11.1431C36.7436 12.0256 37.2808 13.2227 37.3188 14.4831C37.3567 15.7436 36.8925 16.9693 36.0234 17.9032C35.1543 18.837 33.9481 19.4064 32.6577 19.4917L32.3127 19.4998L32.1427 19.5112H30.201C30.5177 20.1173 30.6977 20.8031 30.6977 21.5294C30.6977 24.0157 28.776 26.0096 26.2394 26.0096C23.731 26.0096 22.2144 24.5763 21.806 22.5922C21.7518 22.2798 21.8245 21.9591 22.0086 21.6981C22.1928 21.4371 22.474 21.2562 22.7926 21.1939C23.1112 21.1315 23.4421 21.1926 23.7153 21.3642C23.9885 21.5357 24.1825 21.8042 24.256 22.1128C24.446 23.0309 25.0177 23.5721 26.2394 23.5721C27.3594 23.5721 28.1977 22.7027 28.1977 21.5311C28.1977 20.4114 27.251 19.4998 26.076 19.4998L5.26271 19.5112C4.94375 19.5144 4.63562 19.3985 4.40141 19.1874C4.1672 18.9762 4.02463 18.6858 4.00291 18.3755C3.98118 18.0652 4.08193 17.7586 4.28454 17.5184C4.48715 17.2782 4.77627 17.1226 5.09271 17.0834L5.26271 17.0737H25.9077L26.076 17.0623C26.1844 17.0623 26.2894 17.0656 26.3944 17.0721L32.181 17.0753L32.271 17.0656L32.6044 17.0509C33.0698 17.0063 33.513 16.8353 33.8837 16.5574C34.2545 16.2794 34.5378 15.9057 34.7015 15.4786C34.8653 15.0515 34.9028 14.5882 34.81 14.1413C34.7172 13.6944 34.4977 13.2819 34.1764 12.9506C33.8551 12.6192 33.445 12.3824 32.9925 12.267C32.5401 12.1516 32.0636 12.1622 31.617 12.2977C31.1705 12.4332 30.7719 12.688 30.4665 13.0333C30.1611 13.3786 29.9611 13.8005 29.8894 14.2511L29.8444 14.6394C29.7883 14.948 29.6125 15.2236 29.3535 15.4091C29.0945 15.5946 28.7721 15.6757 28.4534 15.6355C28.1346 15.5954 27.844 15.4371 27.6419 15.1935C27.4397 14.9499 27.3415 14.6398 27.3677 14.3274C27.4458 13.0874 28.0064 11.9233 28.935 11.0725C29.8636 10.2218 31.0902 9.74873 32.3644 9.74982ZM20.701 12.9998H5.29438C4.97767 12.9997 4.67281 12.8824 4.44139 12.6716C4.20998 12.4608 4.06926 12.1722 4.04767 11.8641C4.02608 11.5561 4.12524 11.2515 4.3251 11.012C4.52496 10.7724 4.81063 10.6158 5.12438 10.5737L5.29438 10.5623H20.701C21.5251 10.5623 22.3307 10.3241 23.0159 9.87767C23.7011 9.43128 24.2352 8.7968 24.5505 8.05448C24.8659 7.31215 24.9484 6.49532 24.7877 5.70727C24.6269 4.91922 24.23 4.19535 23.6473 3.6272C23.0646 3.05905 22.3222 2.67214 21.5139 2.51538C20.7057 2.35863 19.8679 2.43908 19.1065 2.74656C18.3452 3.05404 17.6944 3.57475 17.2366 4.24282C16.7788 4.9109 16.5344 5.69634 16.5344 6.49982C16.5344 6.82306 16.4027 7.13305 16.1683 7.36161C15.9338 7.59017 15.6159 7.71857 15.2844 7.71857C14.9529 7.71857 14.6349 7.59017 14.4005 7.36161C14.1661 7.13305 14.0344 6.82306 14.0344 6.49982C14.0344 5.22955 14.4162 3.98713 15.1325 2.9261C15.8489 1.86507 16.8684 1.03194 18.0651 0.529681C19.2618 0.0274211 20.5832 -0.121959 21.866 0.100004C23.1488 0.321966 24.3367 0.905541 25.2831 1.77861C26.2294 2.65167 26.8927 3.77596 27.1908 5.01253C27.489 6.24909 27.4089 7.54374 26.9607 8.73645C26.5124 9.92917 25.7155 10.9677 24.6685 11.7236C23.6215 12.4796 22.3702 12.9199 21.0694 12.9901L20.7027 12.9998H5.29271H20.701Z" fill="white"/>
</g>
<defs>
<filter id="filter0_d" x="0" y="0" width="41.3209" height="34.0096" filterUnits="userSpaceOnUse" color-interpolation-filters="sRGB">
<feFlood flood-opacity="0" result="BackgroundImageFix"/>
<feColorMatrix in="SourceAlpha" type="matrix" values="0 0 0 0 0 0 0 0 0 0 0 0 0 0 0 0 0 0 127 0"/>
<feOffset dy="4"/>
<feGaussianBlur stdDeviation="2"/>
<feColorMatrix type="matrix" values="0 0 0 0 0 0 0 0 0 0 0 0 0 0 0 0 0 0 0.25 0"/>
<feBlend mode="normal" in2="BackgroundImageFix" result="effect1_dropShadow"/>
<feBlend mode="normal" in="SourceGraphic" in2="effect1_dropShadow" result="shape"/>
</filter>
</defs>
</svg>
